# xmcd
#
# Track frame offsets:
#	150
#	14567
#	27472
#	43626
#	57378
#	71172
#	82648
#	95175
#	110292
#	121335
#	133514
#	146688
#	161602
#	174657
#	193808
#	205625
#	223207
#	234629
#	246899
#	261626
#	274355
#	288268
#	304359
#	316815
#
# Disc length: 4347 seconds
#
# Revision: 0
# Processed by: cddbd v1.5.2PL0 Copyright (c) Steve Scherf et al.
# Submitted via: audiograbber 1.83.01
#
DISCID=7610f918
DTITLE=ICMAG - ICMAG 1999-09
DYEAR=1999
DGENRE=
TTITLE0=Take Some Time Off -Hermann Lammers Meyer
TTITLE1=Calling It A Day -Sheri Frushay
TTITLE2=Fantsy -Dianne Rhodes
TTITLE3=Freinds For Ever -Paul Mateki
TTITLE4=GeniePopped Put Of The Bottle -Jack Roux
TTITLE5=He´ll Have To Go -Delon Thompson
TTITLE6=I Saw The Light -Mac Yasuda
TTITLE7=If I Could Touch You -Paul Allan Coons
TTITLE8=I´m Gonna Sing -Jim Wilkerson
TTITLE9=I´m A good Man -Bob Norman
TTITLE10=Just An Old Picture -Cindy Sidock 
TTITLE11=Komn Lass Uns Freunde Sein -Tom J. Anders
TTITLE12=Moon Over Kentucky -Ron Davis
TTITLE13=Mr. Tree Jammi Jack -Chance Martin
TTITLE14=My Heart Ain´t Gonna Break -Pam The Jong
TTITLE15=Palm Of Your Hands -Midny Miller
TTITLE16=Paper Planes -Dorene
TTITLE17=Picture of Hometown -Foxtower Blue Grass Band
TTITLE18=Rattlesnake Jake -Suzie Merwine
TTITLE19=Sally Brown -Tim Alan Cain
TTITLE20=Shine Your Light -Curt Ryle
TTITLE21=So Easy -Dan Nash
TTITLE22=The Blues Is A Good Woman Gone -Billy Keeble
TTITLE23=To Take A Heart -Ann Lee
EXTD=
EXTT0=
EXTT1=
EXTT2=
EXTT3=
EXTT4=
EXTT5=
EXTT6=
EXTT7=
EXTT8=
EXTT9=
EXTT10=
EXTT11=
EXTT12=
EXTT13=
EXTT14=
EXTT15=
EXTT16=
EXTT17=
EXTT18=
EXTT19=
EXTT20=
EXTT21=
EXTT22=
EXTT23=
PLAYORDER=
